<svg xmlns="http://www.w3.org/2000/svg" width="840" height="859" viewBox="0 0 840 859" version="1.1"><path d="M 204 137.638 C 168.182 142.108, 134.206 158.171, 109.168 182.472 C 78.009 212.716, 61.465 250.001, 59.322 294.817 C 58.907 303.478, 59.123 310.513, 59.961 315.691 C 62.571 331.816, 63.857 338.587, 64.863 341.500 C 65.433 343.150, 67.297 348.550, 69.005 353.500 L 72.112 362.500 69.712 364.500 C 68.392 365.600, 63.611 369.175, 59.089 372.444 C 37.753 387.866, 18.730 414.209, 10.598 439.593 C 4.685 458.054, 3.571 465.230, 3.553 485 C 3.533 506.042, 5.391 517.038, 11.745 533.500 C 13.656 538.450, 15.507 543.400, 15.860 544.500 C 16.931 547.846, 25.953 563.716, 27.526 565.022 C 28.337 565.694, 29 566.827, 29 567.539 C 29 568.251, 29.337 568.983, 29.750 569.167 C 30.162 569.350, 32.286 571.750, 34.469 574.500 C 53.701 598.725, 82.615 616.266, 115.500 623.659 C 124.366 625.652, 145.564 626.119, 161.729 624.677 L 170.957 623.853 172.675 628.177 C 176.979 639.011, 186.493 655.089, 194.464 665 C 197.263 668.479, 214.755 685.881, 219 689.408 C 221.989 691.893, 225.837 694.456, 237.511 701.741 C 248.394 708.532, 265.741 714.942, 282.826 718.485 C 325.508 727.336, 373.284 715.309, 407 687.225 C 418.795 677.401, 431.681 662.848, 438.634 651.500 C 443.672 643.278, 447.416 636.670, 448.709 633.722 C 449.753 631.341, 450.326 631.039, 452.714 631.612 C 454.246 631.980, 456.625 632.838, 458 633.519 C 463.354 636.171, 478.970 640.302, 488.500 641.588 C 511.236 644.655, 537.618 641.766, 555 634.307 C 571.080 627.406, 580.743 621.727, 591.601 612.796 C 601.919 604.309, 616.109 587.727, 620.132 579.454 C 621.739 576.150, 621.464 576.180, 634.500 577.845 C 645.794 579.287, 670.370 579.337, 680.678 577.939 C 690.025 576.671, 706.810 572.695, 716.500 569.455 C 725.190 566.549, 741.758 558.790, 748.769 554.343 C 751.668 552.504, 754.254 551, 754.518 551 C 756.459 551, 778.403 532.599, 787.313 523.500 C 801.861 508.643, 817.778 483.732, 824.635 465.087 C 825.967 461.464, 827.472 457.600, 827.978 456.500 C 829.777 452.593, 832.948 439.316, 835.144 426.500 C 839.494 401.110, 837.639 371.876, 830.059 346.361 C 824.571 327.887, 811.955 300.955, 806 295 C 805.725 294.725, 803.951 292.250, 802.058 289.500 C 792.519 275.643, 771.109 255.310, 755.109 244.913 C 735.036 231.871, 706.853 221.271, 683.931 218.143 C 663.603 215.369, 638.248 215.962, 622.250 219.585 C 618.813 220.363, 613.128 221.657, 609.618 222.460 C 606.108 223.263, 601.721 224.575, 599.868 225.375 C 592.938 228.369, 586.100 231, 585.249 231 C 584.764 231, 583.303 229.087, 582.002 226.750 C 575.418 214.928, 561.899 199.504, 548.347 188.354 C 542.763 183.759, 537.971 180, 537.699 180 C 537.427 180, 534.121 178.122, 530.352 175.827 C 509.081 162.873, 488.541 156.883, 460.500 155.457 C 449.745 154.910, 445.255 155.163, 434.500 156.918 C 411.592 160.657, 398.374 165.698, 376 179.227 C 371.065 182.211, 359.716 191.355, 354.859 196.261 L 350.758 200.403 347.256 196.452 C 319.212 164.808, 290.763 147.839, 252.466 139.910 C 242.749 137.898, 213.067 136.507, 204 137.638 M 291 330.956 C 289.075 331.974, 285.025 333.803, 282 335.019 C 278.975 336.236, 276.313 337.405, 276.083 337.616 C 275.854 337.827, 277.542 339.731, 279.833 341.846 L 284 345.693 283.985 389.596 C 283.974 422.433, 283.659 434.114, 282.735 435.937 C 282.017 437.354, 280.139 438.727, 278.250 439.216 C 276.437 439.685, 275 440.708, 275 441.529 C 275 442.756, 277.403 443, 289.500 443 C 301.362 443, 304 442.742, 304 441.579 C 304 440.798, 302.681 439.869, 301.069 439.515 C 295.347 438.258, 295.541 440.087, 295 382.400 L 294.500 329.105 291 330.956 M 481 329.670 C 465.362 335.006, 457.299 344.373, 446.504 369.750 L 444.696 374 435.416 374 C 427.027 374, 426.074 374.191, 425.503 375.991 C 424.440 379.338, 425.786 380.017, 432.747 379.642 C 440.925 379.203, 443.324 379.746, 442.665 381.888 C 442.393 382.774, 439.183 392.950, 435.533 404.500 C 427.566 429.713, 425.527 436.285, 420.064 454.363 C 417.760 461.988, 415.504 468.963, 415.051 469.863 C 414.598 470.763, 413.212 474.650, 411.972 478.500 C 409.051 487.569, 403.781 497.727, 399.253 503.017 C 393.287 509.987, 384.243 512.728, 377.950 509.474 C 375.385 508.148, 375 507.394, 375 503.697 C 375 498.328, 372.768 495, 369.166 495 C 364.630 495, 362 497.562, 362 501.980 C 362 515.109, 384.717 520, 402.589 510.719 C 408.255 507.777, 416.309 497.881, 421.136 487.930 C 425.949 478.008, 429.143 469.211, 435.995 447 C 438.286 439.575, 440.984 431.025, 441.992 428 C 443 424.975, 444.141 420.925, 444.528 419 C 444.914 417.075, 445.550 415.050, 445.940 414.500 C 446.331 413.950, 447.209 411.475, 447.892 409 C 450.607 399.169, 456.344 381.450, 457.082 380.617 C 457.513 380.132, 461.300 379.661, 465.498 379.570 C 470.944 379.452, 473.395 378.989, 474.051 377.952 C 476.166 374.608, 475.153 374, 467.469 374 C 461.866 374, 459.797 373.634, 459.389 372.572 C 458.820 371.087, 464.555 355.467, 468.228 348.500 C 471.231 342.803, 474.671 338.843, 478.863 336.255 C 485.499 332.159, 490.544 333.949, 496.129 342.382 C 499.990 348.210, 503.152 350.430, 506.426 349.608 C 511.609 348.307, 510.851 340.905, 504.992 335.612 C 499.370 330.533, 487.260 327.534, 481 329.670 M 176.994 372.870 C 171.576 374.657, 167.832 377.249, 164.980 381.186 C 162.536 384.560, 162 386.286, 162 390.782 C 162 399.880, 165.513 403.639, 182 412.181 C 185.025 413.748, 189.234 416.934, 191.354 419.260 C 194.893 423.146, 195.171 423.868, 194.763 428.118 C 194.518 430.662, 193.372 434.073, 192.216 435.697 C 188.650 440.704, 179.295 442.106, 173.478 438.504 C 170.883 436.898, 166.436 428.594, 165.575 423.750 C 165.073 420.923, 164.428 420, 162.955 420 C 161.148 420, 161 420.742, 161 429.813 L 161 439.625 166.250 442.033 C 170.544 444.003, 173.139 444.445, 180.500 444.462 C 188.359 444.479, 190.149 444.140, 194.620 441.790 C 203.104 437.329, 206.981 431.039, 206.994 421.710 C 207.001 417.385, 204.291 411.499, 200.847 408.360 C 199.556 407.184, 193.550 403.450, 187.500 400.064 C 174.202 392.620, 171.697 390.060, 172.369 384.603 C 173.080 378.831, 175.755 376.718, 183.014 376.193 L 189.105 375.752 193.564 380.406 C 196.453 383.420, 198.445 386.635, 199.219 389.530 C 200.083 392.761, 200.922 394, 202.246 394 C 203.902 394, 204.050 393.175, 203.789 385.397 L 203.500 376.794 198.500 374.847 C 192.969 372.693, 180.895 371.583, 176.994 372.870 M 241.500 372.686 C 230.132 375.265, 216.902 384.504, 215.719 390.687 C 214.628 396.395, 218.961 400.106, 224.333 398.063 C 227.653 396.801, 228.278 395.597, 229.526 388.056 C 230.563 381.792, 230.718 381.547, 235.047 379.334 C 241.079 376.249, 246.384 376.293, 249.545 379.455 C 251.821 381.730, 252 382.631, 252 391.813 L 252 401.717 244.226 404.790 C 226.545 411.776, 218.118 418.051, 216.055 425.765 C 211.955 441.101, 226.754 449.931, 242 441.244 C 244.475 439.834, 246.860 438.077, 247.300 437.340 C 248.313 435.643, 252 435.580, 252 437.260 C 252 439.129, 256.819 443.984, 258.790 444.101 C 263.399 444.374, 267.718 443.705, 269.745 442.403 C 271.741 441.121, 275 435.213, 275 432.878 C 275 431.127, 272.528 432.059, 270.532 434.562 C 269.179 436.259, 267.923 436.908, 266.816 436.483 C 265.322 435.910, 265.109 432.995, 264.822 409.171 C 264.466 379.673, 264.222 378.407, 258.102 374.287 C 255.488 372.527, 253.413 372.027, 249.102 372.116 C 246.021 372.180, 242.600 372.436, 241.500 372.686 M 333.344 372.983 C 317.554 376.330, 307.782 390.112, 307.707 409.139 C 307.649 423.999, 314.087 435.891, 325.362 441.749 C 329.722 444.015, 331.787 444.425, 339 444.459 C 346.471 444.495, 348.055 444.174, 352.084 441.805 C 357.496 438.623, 363.108 432.669, 365.957 427.085 C 368.349 422.396, 368.411 422, 366.750 422 C 366.063 422.001, 363.620 424.184, 361.322 426.852 C 356.148 432.861, 351.790 435, 344.725 435 C 330.794 435, 320.503 422.486, 321.201 406.393 L 321.500 399.500 344 399 L 366.500 398.500 366.830 395.605 C 367.608 388.796, 361.169 378.657, 353.624 374.808 C 349.031 372.465, 339.734 371.628, 333.344 372.983 M 390.500 372.872 C 383.514 374.719, 378.066 379.038, 376.067 384.315 C 374.759 387.766, 374.685 394.041, 375.913 397.272 C 377.387 401.148, 383.430 406.149, 392.260 410.799 C 406.441 418.267, 409.995 423.596, 406.594 432.293 C 404.333 438.075, 401.153 440.154, 394.477 440.214 C 385.930 440.291, 383.310 437.891, 379.504 426.500 C 378.243 422.724, 376.944 420.500, 376 420.500 C 374.791 420.500, 374.445 422.355, 374.216 430.063 L 373.932 439.626 379.136 442.063 C 383.502 444.108, 385.802 444.490, 393.420 444.435 C 401.205 444.379, 403.234 443.992, 407.649 441.720 C 417.291 436.755, 421.157 429.198, 419.546 418.458 C 418.579 412.010, 415.001 408.481, 401.843 400.993 C 395.604 397.443, 389.262 393.327, 387.750 391.846 C 383.905 388.082, 384.003 383.279, 388.013 378.986 C 390.881 375.916, 391.313 375.782, 397.014 376.195 C 401.939 376.551, 403.551 377.149, 406.093 379.564 C 409.634 382.928, 413 388.969, 413 391.960 C 413 393.333, 413.654 394, 415 394 C 416.841 394, 417 393.333, 417 385.633 L 417 377.267 411.750 375.068 C 406.092 372.699, 395.353 371.589, 390.500 372.872 M 490.500 372.872 C 475.040 376.963, 466 390.167, 466 408.658 C 466 424.144, 472.586 435.888, 484.720 442.038 C 491.508 445.479, 505.202 445.558, 512.500 442.199 C 522.711 437.499, 529.095 428.343, 530.988 415.682 C 533.789 396.951, 526.645 381.405, 512.287 374.986 C 507.084 372.660, 495.535 371.539, 490.500 372.872 M 546.500 375.231 C 542.650 376.903, 538.441 378.761, 537.146 379.360 L 534.793 380.449 538.646 383.685 L 542.500 386.922 542.500 411.308 C 542.500 437.764, 542.400 438.270, 536.978 439.354 C 535.236 439.703, 534 440.583, 534 441.475 C 534 442.778, 536.328 443, 550 443 C 563.556 443, 566 442.771, 566 441.500 C 566 440.675, 565.663 439.970, 565.250 439.933 C 559.852 439.447, 557.288 438.697, 556.250 437.300 C 554.616 435.101, 554.465 390.869, 556.080 387.850 C 556.675 386.739, 558.661 385.204, 560.495 384.438 C 563.359 383.241, 564.506 383.248, 568.627 384.488 C 574.073 386.127, 577.606 385.605, 579.026 382.951 C 580.536 380.130, 580.190 377.511, 577.927 374.635 C 573.931 369.554, 564.331 371.811, 557.791 379.369 L 555.081 382.500 555.041 377.250 C 555.018 374.363, 554.663 372.043, 554.250 372.096 C 553.837 372.148, 550.350 373.559, 546.500 375.231 M 603 372.876 C 599.879 373.903, 593.003 377.535, 590.977 379.227 C 583.570 385.418, 578 397.918, 578 408.352 C 578 413.735, 580.357 423.855, 582.637 428.265 C 585.180 433.183, 591.172 439.051, 596.437 441.781 C 600.632 443.956, 602.871 444.413, 609.500 444.449 C 616.490 444.487, 618.098 444.142, 622.234 441.714 C 627.999 438.329, 630.746 435.736, 634.129 430.487 C 639.470 422.198, 638.468 417.736, 632.981 425.376 C 621.803 440.943, 599.983 436.614, 593.641 417.572 C 591.264 410.433, 591.459 397.521, 594.049 390.598 C 597.232 382.092, 605.376 376, 613.567 376 C 618.387 376, 622.211 380.071, 623.781 386.873 C 625.651 394.974, 629.872 397.879, 634.777 394.443 C 638.680 391.710, 637.234 384.274, 631.845 379.363 C 627.044 374.987, 620.840 372.683, 613 372.362 C 608.875 372.193, 604.375 372.424, 603 372.876 M 669.500 372.602 C 652.098 376.843, 642.704 389.529, 642.815 408.637 C 642.870 418.129, 644.166 423.757, 647.737 430 C 653.486 440.050, 661.371 444.391, 674 444.456 C 681.784 444.496, 682.921 444.241, 687.500 441.419 C 695.343 436.587, 704.046 424.713, 701.565 422.231 C 701.193 421.860, 698.777 423.847, 696.195 426.646 C 689.724 433.661, 687.160 435.004, 680.285 434.978 C 667.174 434.928, 658.446 426.469, 655.843 411.290 C 654.906 405.826, 654.891 403.535, 655.778 401.588 L 656.940 399.038 679.220 398.769 C 701.232 398.503, 701.504 398.474, 701.809 396.327 C 702.762 389.637, 696.547 379.349, 689.035 375.180 C 684.631 372.736, 674.458 371.393, 669.500 372.602 M 716.077 374.589 C 708.523 380.945, 716.359 392.624, 725.055 387.970 C 727.763 386.521, 730.240 381.331, 729.435 378.794 C 728.462 375.731, 724.067 372, 721.431 372 C 720.178 372, 717.769 373.165, 716.077 374.589 M 716.189 376.039 C 712.446 379.526, 713.658 384.141, 719.078 387.042 C 720.422 387.761, 721.638 387.729, 723.122 386.935 L 725.244 385.799 723.135 383.691 C 721.048 381.604, 721.011 381.602, 719.545 383.541 C 718.169 385.361, 718.061 385.163, 718.032 380.750 C 718.001 376.171, 718.104 376, 720.893 376 C 723.997 376, 725.173 377.622, 724.351 380.766 C 723.658 383.415, 726.680 384.585, 727.504 381.987 C 728.653 378.369, 724.687 374, 720.254 374 C 719.222 374, 717.392 374.918, 716.189 376.039 M 334.655 378.459 C 329.864 380.167, 326.249 383.489, 324.413 387.872 C 321.833 394.029, 321.785 394.001, 335.250 393.986 C 349.124 393.971, 352 393.475, 352 391.095 C 352 387.433, 347.485 380.493, 344 378.798 C 339.768 376.740, 339.502 376.731, 334.655 378.459 M 490.823 378.778 C 484.563 382.907, 480.750 391.581, 479.475 404.596 C 478.949 409.958, 479.272 413.491, 480.920 420.415 C 484.491 435.423, 488.675 440, 498.828 440 C 503.868 440, 505.355 439.573, 507.972 437.370 C 521.145 426.286, 520.954 389.694, 507.670 379.562 C 503.496 376.378, 495.058 375.986, 490.823 378.778 M 668.013 379.228 C 663.604 381.461, 658.832 387.151, 657.511 391.750 L 656.865 394 670.351 394 C 684.599 394, 687 393.627, 687 391.413 C 687 388.384, 683.618 381.865, 681.136 380.111 C 676.658 376.947, 673.004 376.701, 668.013 379.228 M 244.500 409.356 C 236.518 412.838, 232.961 414.971, 229.881 418.122 C 223.927 424.213, 227.549 433.887, 236.407 435.548 C 239.425 436.115, 241.172 435.691, 245.807 433.264 L 251.500 430.285 251.782 418.642 C 252.099 405.540, 252.391 405.913, 244.500 409.356" stroke="none" fill="#469ad9" fill-rule="evenodd"/></svg>